<?xml version="1.0" standalone="no"?>
<!DOCTYPE svg PUBLIC "-//W3C//DTD SVG 20010904//EN"
 "http://www.w3.org/TR/2001/REC-SVG-20010904/DTD/svg10.dtd">
<svg version="1.0" xmlns="http://www.w3.org/2000/svg"
 width="512.000000pt" height="512.000000pt" viewBox="0 0 512.000000 512.000000"
 preserveAspectRatio="xMidYMid meet">
<metadata>
Created by potrace 1.11, written by Peter Selinger 2001-2013
</metadata>
<g transform="translate(0.000000,512.000000) scale(0.100000,-0.100000)"
fill="#000000" stroke="none">
<path d="M2455 5106 c-164 -51 -260 -166 -289 -348 -7 -45 11 -144 37 -201 14
-30 46 -76 73 -103 l47 -49 1 -253 1 -252 -35 -9 c-19 -5 -48 -12 -65 -17 -16
-4 -34 -8 -40 -9 -84 -20 -246 -92 -336 -150 l-67 -43 -178 179 -179 179 -1
53 c-2 101 -22 164 -74 237 -110 156 -321 209 -494 124 -243 -119 -296 -443
-103 -633 77 -76 162 -111 276 -114 l62 -2 179 -179 179 -179 -30 -44 c-78
-113 -154 -299 -193 -473 l-5 -25 -253 1 -253 1 -49 47 c-130 127 -329 147
-484 47 -68 -44 -112 -96 -150 -178 -23 -51 -27 -70 -27 -154 0 -88 3 -101 34
-164 42 -85 52 -97 125 -151 155 -116 362 -102 510 35 l51 47 249 -1 c213 0
249 -2 251 -15 21 -130 99 -331 177 -456 21 -34 38 -64 38 -67 0 -4 -48 -53
-107 -111 l-108 -105 30 -31 30 -31 -57 -55 c-55 -54 -59 -55 -90 -45 -18 6
-61 12 -96 14 -76 5 -187 -29 -248 -76 -103 -79 -164 -206 -158 -332 15 -348
435 -508 677 -258 72 74 109 164 111 273 l1 61 179 179 179 179 42 -29 c114
-78 350 -173 480 -192 19 -3 20 -11 20 -253 l1 -250 -49 -54 c-60 -67 -85
-115 -102 -200 -21 -101 -2 -201 54 -289 44 -68 97 -112 178 -149 49 -22 73
-27 153 -27 87 -1 101 2 163 31 249 118 309 436 119 633 l-47 49 0 252 c0 216
2 252 15 254 138 22 366 114 486 196 l41 28 179 -180 179 -179 1 -53 c1 -78
12 -126 45 -187 73 -137 196 -212 349 -213 252 0 442 235 385 478 -42 183
-190 303 -380 308 l-66 2 -179 179 -179 179 30 43 c61 90 139 264 168 379 5
22 14 58 20 80 l10 40 251 0 250 0 38 -36 c84 -81 170 -120 272 -121 202 -4
360 121 400 316 44 215 -105 430 -322 464 -135 21 -275 -27 -354 -121 l-27
-32 -253 0 -254 0 -10 35 c-5 19 -10 40 -10 46 0 21 -63 200 -93 264 -16 36
-49 95 -73 132 l-42 66 178 179 179 178 68 1 c341 8 515 420 281 664 -249 259
-675 89 -682 -272 l-1 -58 -204 -205 -204 -205 -26 17 c-14 9 -45 28 -68 41
-48 26 -50 32 -27 66 15 24 14 24 -38 49 -75 35 -183 72 -253 87 -33 8 -65 17
-70 21 -7 5 -10 98 -10 251 l0 244 49 55 c133 150 147 342 36 504 -67 97 -180
157 -304 161 -45 1 -99 -3 -121 -10z"/>
</g>
</svg>
